<?xml version="1.0" standalone="no"?>
<!DOCTYPE svg PUBLIC "-//W3C//DTD SVG 1.1//EN" "http://www.w3.org/Graphics/SVG/1.1/DTD/svg11.dtd" >
<!--
2013-9-30: Created.
-->
<svg>
<metadata>
Created by iconfont
</metadata>
<defs>

<font id="iconfont" horiz-adv-x="1024" >
  <font-face
    font-family="iconfont"
    font-weight="500"
    font-stretch="normal"
    units-per-em="1024"
    ascent="896"
    descent="-128"
  />
    <missing-glyph />
    
    <glyph glyph-name="tupiantianjia" unicode="&#58946;" d="M856.32 467.936c-94.816 0-144.928-90.656-185.184-163.52-25.824-46.688-52.512-94.944-78.72-97.568-28.544 5.664-48.096 23.2-70.656 43.36-31.744 28.448-67.488 60.288-130.464 57.952-76.8-3.328-146.24-57.696-206.4-161.696a32 32 0 0 1 55.392-32.064c48.48 83.84 100.224 127.488 153.728 129.824 36.928 1.44 56.96-16.576 84.992-41.664 26.88-24.096 57.344-51.36 105.888-59.392a31.584 31.584 0 0 1 5.216-0.448c64.704 0 101.44 66.464 136.96 130.72 28.352 51.328 57.504 104 97.184 123.072v-369.984H128V664.32h488.16a32 32 0 1 1 0 64H96a32 32 0 0 1-32-32v-701.824a32 32 0 0 1 32-32h760.32a32 32 0 0 1 32 32v441.44a32 32 0 0 1-32 32zM180.96 471.68c0-57.952 47.168-105.12 105.12-105.12S391.2 413.728 391.2 471.68s-47.168 105.088-105.12 105.088-105.12-47.136-105.12-105.088z m146.24 0a41.152 41.152 0 0 0-82.24 0 41.152 41.152 0 0 0 82.24 0zM960 721.344h-61.376V782.72a32 32 0 1 1-64 0v-61.344H752.64a32 32 0 1 1 0-64h81.984v-81.984a32 32 0 1 1 64 0v81.952H960a32 32 0 1 1 0 64z"  horiz-adv-x="1024" />

    
    <glyph glyph-name="chevron-left-copy" unicode="&#59391;" d="M298.688 404.48a45.632 45.632 0 0 0 15.744 35.648L636.16 752.704c20.99200001 20.416 54.208 20.416 73.408 1e-8 20.992-20.352 20.992-52.672 0-71.36000001l-283.264-275.2 283.264-276.864c20.992-20.352 20.99200001-52.608 0-71.296-20.928-20.416-54.208-20.416-73.408 0l-321.728 310.848c-8.768 10.176-15.744 23.744-15.744 35.648z"  horiz-adv-x="1024" />

    
    <glyph glyph-name="chevron-right-copy" unicode="&#59392;" d="M725.312 363.52a45.632 45.632 0 0 0-15.744-35.648L387.84 15.29600000000005c-20.99200001-20.416-54.208-20.416-73.408-1e-8-20.992 20.352-20.992 52.672 0 71.36000001l283.264 275.2-283.264 276.864c-20.992 20.352-20.99200001 52.608 0 71.296 20.928 20.416 54.208 20.416 73.408 0l321.728-310.848c8.768-10.176 15.744-23.744 15.744-35.648z"  horiz-adv-x="1024" />

    
    <glyph glyph-name="share-more" unicode="&#58974;" d="M132.740741 384m-75.851852 0a75.851852 75.851852 0 1 1 151.703704 0 75.851852 75.851852 0 1 1-151.703704 0ZM512 384m-75.851852 0a75.851852 75.851852 0 1 1 151.703704 0 75.851852 75.851852 0 1 1-151.703704 0ZM891.259259 384m-75.851852 0a75.851852 75.851852 0 1 1 151.703704 0 75.851852 75.851852 0 1 1-151.703704 0Z"  horiz-adv-x="1024" />

    
    <glyph glyph-name="chevron-up" unicode="&#59305;" d="M532.48 597.312a45.632 45.632 0 0 0 35.648-15.744L880.704 259.84000000000003c20.416-20.99200001 20.416-54.208 1e-8-73.408-20.352-20.992-52.672-20.992-71.36000001 0l-275.2 283.264-276.864-283.264c-20.352-20.992-52.608-20.99200001-71.296 0-20.416 20.928-20.416 54.208 0 73.408l310.848 321.728c10.176 8.768 23.744 15.744 35.648 15.744z"  horiz-adv-x="1024" />

    
    <glyph glyph-name="chevrons-down" unicode="&#59306;" d="M534.208 42.688a48.896 48.896 0 0 0-35.712 15.296L185.984 370.432c-20.416 20.416-20.416 52.672 0 71.36 20.352 20.352 52.608 20.352 71.296 0l275.2-275.2 275.2 275.2c20.352 20.352 52.672 20.352 71.36 0 20.352-20.416 20.352-52.672 0-71.36l-309.184-312.512a51.84 51.84 0 0 0-35.648-15.36zM534.208 355.2a48.896 48.896 0 0 0-35.712 15.36L185.984 681.28c-20.416 20.416-20.416 52.672 0 71.36 20.352 20.416 52.608 20.416 71.296 0l275.2-275.2 276.864 275.2c20.416 20.416 52.672 20.416 71.36 0 20.416-20.352 20.416-52.672 0-71.36L569.856 368.832a49.792 49.792 0 0 0-35.648-13.632z"  horiz-adv-x="1024" />

    
    <glyph glyph-name="more-horizontal" unicode="&#59321;" d="M490.688 426.688a64 64 0 1 0 0-128 64 64 0 0 0 0 128zM704 426.688a64 64 0 1 0 0-128 64 64 0 0 0 0 128zM277.312 426.688a64 64 0 1 0 0-128 64 64 0 0 0 0 128z"  horiz-adv-x="1024" />

    
    <glyph glyph-name="chevron-down-copy" unicode="&#59390;" d="M491.52 170.688a45.632 45.632 0 0 0-35.648 15.744L143.296 508.16c-20.416 20.99200001-20.416 54.208-1e-8 73.408 20.352 20.992 52.672 20.992 71.36000001 0l275.2-283.264 276.864 283.264c20.352 20.992 52.608 20.99200001 71.296 0 20.416-20.928 20.416-54.208 0-73.408l-310.848-321.728c-10.176-8.768-23.744-15.744-35.648-15.744z"  horiz-adv-x="1024" />

    
    <glyph glyph-name="wodewo" unicode="&#59104;" d="M430.08 824.32c130.06848 0 235.52-105.45152 235.52-235.52 0-84.82816-44.8512-159.19104-112.14848-200.66304C679.40352 335.7696 768 211.51744 768 66.56v-10.24a112.64 112.64 0 0 0-112.64-112.64H184.32A112.64 112.64 0 0 0 71.68 56.32v10.24c0 149.79072 94.57664 277.46304 227.28704 326.59456A235.19232 235.19232 0 0 0 194.56 588.8C194.56 718.86848 300.01152 824.32 430.08 824.32z m-10.24-471.04c-158.35136 0-286.72-128.36864-286.72-286.72v-10.24A51.2 51.2 0 0 1 184.32 5.12h471.04a51.2 51.2 0 0 1 51.2 51.2v10.24c0 158.35136-128.36864 286.72-286.72 286.72zM731.136 739.77856c8.86784-3.8912 17.42848-8.3968 25.6-13.43488 57.5488-35.49184 93.184-95.68256 93.184-161.77152 0-60.14976-29.4912-114.688-76.63616-150.44608 106.86464-53.18656 179.03616-170.02496 179.03616-302.592a98.89792 98.89792 0 0 0-94.37184-98.87744l-4.4032-0.1024h-15.64672a30.72 30.72 0 0 0-2.9696 61.29664l2.9696 0.14336h15.64672c20.60288 0 37.33504 16.7936 37.33504 37.53984 0 131.72736-85.6064 243.24096-200.86784 266.9568a30.72 30.72 0 0 0-23.90016 36.27008l0.2048 1.00352a30.72 30.72 0 0 0 21.38112 22.97856c59.904 17.6128 100.78208 68.44416 100.78208 125.82912 0 44.15488-24.10496 84.86912-63.97952 109.4656a149.8112 149.8112 0 0 1-18.14528 9.54368 30.72 30.72 0 1 0 24.7808 56.19712zM430.08 762.88a174.08 174.08 0 1 1 0-348.16 174.08 174.08 0 0 1 0 348.16z"  horiz-adv-x="1024" />

    
    <glyph glyph-name="duigou" unicode="&#59111;" d="M149.95456 424.22272a30.72 30.72 0 0 0 41.2672 2.00704l2.19136-2.00704 224.4608-224.4608 412.71296 412.73344a30.72 30.72 0 0 0 41.2672 1.98656l2.19136-1.98656a30.72 30.72 0 0 0 1.98656-41.24672l-1.98656-2.19136-434.46272-434.46272a30.72 30.72 0 0 0-41.24672-1.98656l-2.19136 1.98656-246.1696 246.19008a30.72 30.72 0 0 0 0 43.43808z"  horiz-adv-x="1024" />

    
    <glyph glyph-name="tianqiqingzhuanduoyun" unicode="&#59139;" d="M672 682.666667a170.666667 170.666667 0 0 0 128.746667-282.730667c95.445333-20.693333 170.538667-99.413333 179.626666-197.76l0.448-5.973333C989.248 66.410667 886.613333-42.666667 757.333333-42.666667H273.28c-120.213333 0-222.506667 91.221333-230.101333 209.152C34.730667 296.234667 137.386667 405.333333 266.645333 405.333333h30.634667l0.853333 2.88a224.128 224.128 0 0 0 207.68 157.034667l5.290667 0.064a32 32 0 0 0 2.154667 9.493333A170.688 170.688 0 0 0 672 682.666667zM512 501.333333a160.085333 160.085333 0 0 1-155.093333-120.469333C350.933333 357.248 329.386667 341.333333 305.365333 341.333333H266.666667c-92.330667 0-165.653333-77.909333-159.637334-170.709333C112.426667 87.04 186.112 21.333333 273.237333 21.333333H757.333333c92.373333 0 165.674667 77.909333 159.658667 170.709334C911.573333 275.584 837.845333 341.333333 750.72 341.333333h-32.149333c-23.936 0-45.482667 15.893333-51.456 39.466667a160.106667 160.106667 0 0 1-155.136 120.533333z m400.896-46.378666l39.829333-15.296a32 32 0 0 0-22.933333-59.733334l-39.829333 15.274667a32 32 0 1 0 22.933333 59.754667zM672 618.666667a106.709333 106.709333 0 0 1-97.066667-62.357334c67.84-19.84 123.093333-71.018667 147.584-138.261333l-0.853333-0.469333A106.666667 106.666667 0 0 1 672 618.666667z m317.653333-68.032a32 32 0 0 0-27.861333-35.648l-42.346667-5.205334a32 32 0 0 0-7.786666 63.530667l42.346666 5.184a32 32 0 0 0 35.648-27.861333z m-54.506666 143.445333a32 32 0 0 0-7.850667-44.586667L892.352 625.066667a32 32 0 0 0-36.714667 52.416l34.944 24.469333a32 32 0 0 0 44.586667-7.850667z m-481.728 7.850667l34.944-24.469334a32 32 0 0 0-36.693334-52.416l-34.965333 24.469334a32 32 0 1 0 36.693333 52.416z m367.552 93.290666a32 32 0 0 0 13.226666-43.306666l-20.032-37.653334a32 32 0 0 0-56.512 30.037334l20.053334 37.674666a32 32 0 0 0 43.264 13.226667z m-254.656-13.226666l20.032-37.696a32 32 0 1 0-56.512-30.037334l-20.032 37.674667a32 32 0 1 0 56.512 30.037333zM672 832A32 32 0 0 0 704 800v-42.666667a32 32 0 0 0-64 0v42.666667A32 32 0 0 0 672 832z"  horiz-adv-x="1024" />

    
    <glyph glyph-name="tianqiyintian" unicode="&#59141;" d="M597.333333 778.666667c92.288 0 173.525333-56.32 207.381334-139.178667l1.109333-2.837333 1.92-0.362667a213.397333 213.397333 0 0 0 173.504-203.648L981.333333 426.666667c0-35.136-8.533333-69.12-24.597333-99.52l-0.64-1.088a215.402667 215.402667 0 0 0 24.256-81.237334l0.469333-5.973333C989.248 109.098667 886.613333 0 757.333333 0H273.28c-120.213333 0-222.506667 91.221333-230.101333 209.152C34.730667 338.901333 137.386667 448 266.645333 448h30.634667l0.853333 2.88a223.744 223.744 0 0 0 75.242667 109.098667L373.333333 554.666667c0 123.712 100.288 224 224 224z m-85.333333-234.666667a160.085333 160.085333 0 0 1-155.093333-120.469333C350.933333 399.914667 329.386667 384 305.365333 384H266.666667c-92.330667 0-165.653333-77.909333-159.637334-170.709333C112.426667 129.706667 186.112 64 273.237333 64H757.333333c92.373333 0 165.674667 77.909333 159.658667 170.709333C911.573333 318.250667 837.845333 384 750.72 384h-32.149333c-23.936 0-45.482667 15.893333-51.456 39.466667a160.106667 160.106667 0 0 1-155.136 120.533333z m85.333333 170.666667a160.064 160.064 0 0 1-154.304-117.504 223.68 223.68 0 0 0 62.784 10.752L512 608c98.965333 0 184.96-64.725333 213.845333-157.12l0.832-2.88h24.042667c61.717333 0 118.698667-24.042667 160.597333-63.402667a149.333333 149.333333 0 0 1-131.754666 190.954667 32 32 0 0 0-28.352 23.125333A160.085333 160.085333 0 0 1 597.333333 714.666667z"  horiz-adv-x="1024" />

    
    <glyph glyph-name="tianqiyutiandayu" unicode="&#59144;" d="M481.130667 166.314667a32 32 0 0 0 22.613333-39.210667l-49.685333-185.450667a32 32 0 0 0-61.824 16.576l49.706666 185.450667a32 32 0 0 0 39.189334 22.613333z m256.042666 0a32 32 0 0 0 22.613334-39.210667l-49.685334-185.450667a32 32 0 0 0-61.824 16.576l49.706667 185.450667a32 32 0 0 0 39.189333 22.613333z m-139.050666 1.450666a32 32 0 0 0 22.613333-39.189333l-27.584-103.04a32 32 0 1 0-61.824 16.554667l27.605333 103.04a32 32 0 0 0 39.189334 22.613333z m-256.042667 0a32 32 0 0 0 22.613333-39.189333l-27.584-103.04a32 32 0 1 0-61.824 16.554667l27.605334 103.04a32 32 0 0 0 39.189333 22.613333zM512 842.666667c98.986667 0 185.002667-64.725333 213.866667-157.12l0.832-2.88h24.042666c118.165333 0 219.029333-88.170667 229.632-203.178667l0.469334-5.973333C989.248 343.765333 886.613333 234.666667 757.333333 234.666667H273.28c-120.213333 0-222.506667 91.221333-230.101333 209.152C34.730667 573.568 137.386667 682.666667 266.645333 682.666667h30.634667l0.853333 2.88a224.128 224.128 0 0 0 207.68 157.034666z m0-64a160.085333 160.085333 0 0 1-155.093333-120.469334C350.954667 634.581333 329.386667 618.666667 305.386667 618.666667H266.666667c-92.330667 0-165.653333-77.909333-159.637334-170.709334C112.426667 364.373333 186.112 298.666667 273.237333 298.666667H757.333333c92.373333 0 165.674667 77.909333 159.658667 170.709333C911.573333 552.917333 837.845333 618.666667 750.72 618.666667h-32.149333c-23.936 0-45.482667 15.893333-51.456 39.466666a160.106667 160.106667 0 0 1-155.136 120.533334z"  horiz-adv-x="1024" />

    
    <glyph glyph-name="aixin" unicode="&#59153;" d="M707.11296 793.6l7.5776-0.1024c65.536-1.80224 130.56-27.0336 181.6576-75.69408l5.85728-5.71392 4.97664-5.14048c99.5328-105.5744 101.13024-270.62272 4.75136-378.10176l-4.8128-5.24288-4.9152-5.05856-306.5856-309.20704-3.80928-3.66592a117.78048 117.78048 0 0 0-159.6416 0l-3.7888 3.66592-306.5856 309.20704-4.34176 4.42368-4.85376 5.24288C15.70816 435.67104 17.1008 601.14944 116.79744 706.92864l4.99712 5.16096 5.09952 5.0176A274.2272 274.2272 0 0 0 480.4608 739.47136l5.5296-4.23936 2.9696-2.12992c15.09376-9.91232 34.59072-9.216 49.02912 2.12992a273.6128 273.6128 0 0 0 161.32096 58.24512l7.7824 0.12288zM450.1504 685.34272l-2.048 1.55648c-81.42848 63.85664-197.07904 59.74016-273.48992-9.29792l-4.62848-4.3008-4.56704-4.48512C85.6064 588.3904 81.34656 459.5712 153.6 374.59968l4.096-4.66944 3.584-3.93216 310.70208-313.40544c20.41856-20.60288 52.98176-22.13888 74.32192-5.14048l2.82624 2.43712 2.82624 2.70336 306.176 308.77696 4.28032 4.4032c77.4144 82.06336 78.86848 210.5344 4.85376 293.7856l-4.28032 4.66944-4.44416 4.608a212.0704 212.0704 0 0 1-137.74848 62.91456l-6.98368 0.3072-7.0656 0.12288-7.10656-0.14336a212.15232 212.15232 0 0 1-117.71904-40.59136l-6.02112-4.54656a103.17824 103.17824 0 0 0-116.5312-7.74144l-4.15744 2.60096-5.07904 3.584z"  horiz-adv-x="1024" />

    
    <glyph glyph-name="tianqitaiyangqichuang" unicode="&#59159;" d="M512 21.33333300000004a32 32 0 0 0 32-32v-64a32 32 0 0 0-64 0v64A32 32 0 0 0 512 21.33333300000004z m-256.426667 106.24a32 32 0 0 0 0-45.269333l-45.269333-45.248a32 32 0 0 0-45.248 45.226667l45.226667 45.269333a32 32 0 0 0 45.269333 0z m558.122667 0l45.248-45.269333a32 32 0 0 0-45.226667-45.248l-45.269333 45.226667a32 32 0 1 0 45.248 45.269333zM512 682.666667c164.949333 0 298.666667-133.717333 298.666667-298.666667s-133.717333-298.666667-298.666667-298.666667-298.666667 133.717333-298.666667 298.666667 133.717333 298.666667 298.666667 298.666667zM117.333333 416a32 32 0 0 0 0-64h-64a32 32 0 0 0 0 64h64z m853.333334 0a32 32 0 0 0 0-64h-64a32 32 0 0 0 0 64h64zM210.304 730.944l45.248-45.226667a32 32 0 1 0-45.248-45.269333L165.056 685.696a32 32 0 0 0 45.226667 45.248z m648.64 0a32 32 0 0 0 0-45.226667l-45.226667-45.269333a32 32 0 1 0-45.269333 45.248l45.248 45.248a32 32 0 0 0 45.248 0zM512 874.666667a32 32 0 0 0 32-32v-64a32 32 0 0 0-64 0v64A32 32 0 0 0 512 874.666667z"  horiz-adv-x="1024" />

    
    <glyph glyph-name="tianqishuijueyewanshuijue" unicode="&#59160;" d="M416.896 832A406.698667 406.698667 0 0 1 405.333333 735.445333c0-223.850667 181.482667-405.333333 405.333334-405.333333 52.181333 0 102.058667 9.856 147.861333 27.818667C940.16 127.42399999999998 747.242667-53.888000000000034 512-53.888000000000034c-247.424 0-448 200.576-448 448C64 608.896 215.146667 788.394667 416.896 832zM832 757.333333c27.52 0 41.792-32.128 24.597333-52.48l-1.962666-2.133333-137.408-137.386667H832a32 32 0 0 0 31.850667-28.928L864 533.333333a32 32 0 0 0-28.928-31.850666L832 501.333333h-192c-27.52 0-41.792 32.128-24.597333 52.48l1.962666 2.133334 137.365334 137.386666H640a32 32 0 0 0-31.850667 28.928L608 725.333333a32 32 0 0 0 28.928 31.850667L640 757.333333h192z"  horiz-adv-x="1024" />

    
    <glyph glyph-name="tianqishuijueyewanshuijue1" unicode="&#59161;" d="M416.917333 832A405.632 405.632 0 0 1 405.333333 735.445333c0-223.850667 181.482667-405.333333 405.333334-405.333333 52.181333 0 102.058667 9.856 147.861333 27.818667C940.16 127.424 747.242667-53.888 512-53.888c-247.424 0-448 200.576-448 448C64 608.917333 215.168 788.394667 416.917333 832z m-75.562666-93.717333l-1.856-0.938667C212.885333 673.664 128 542.528 128 394.090667c0-212.053333 171.925333-383.978667 384-383.978667 167.104 0 310.485333 107.178667 362.816 257.813333l0.896 2.709334-6.336-0.874667c-15.488-1.941333-31.125333-3.114667-46.869333-3.498667l-11.84-0.149333c-256.618667 0-465.130667 205.952-469.269334 461.568L341.333333 735.445333l0.021334 2.837334zM746.666667 756.778667a32 32 0 0 0 32-32v-64h64a32 32 0 0 0 0-64h-64v-64a32 32 0 0 0-64 0v64h-64a32 32 0 0 0 0 64h64v64a32 32 0 0 0 32 32z"  horiz-adv-x="1024" />

    
    <glyph glyph-name="jihua" unicode="&#59170;" d="M234.666667-85.333333a160 160 0 0 0-160 160v618.666666A160 160 0 0 0 234.666667 853.333333h384a160 160 0 0 0 160-160V448H874.666667a74.666667 74.666667 0 0 0 74.56-70.570667l0.106666-4.096v-298.666666A160 160 0 0 0 789.333333-85.333333zM714.666667 693.333333a96 96 0 0 1-91.477334 95.893334L618.666667 789.333333H234.666667a96 96 0 0 1-96-96v-618.666666A96 96 0 0 1 234.666667-21.333333h480zM874.666667 384h-96v-405.333333h10.666666a96 96 0 0 1 96 96v298.666666a10.666667 10.666667 0 0 1-10.666666 10.666667z m-394.666667 0a32 32 0 0 0 0-64h-234.666667a32 32 0 0 0 0 64h234.666667z m128 234.666667a32 32 0 0 0 0-64h-362.666667a32 32 0 0 0 0 64h362.666667z"  horiz-adv-x="1024" />

    
    <glyph glyph-name="tupianxiangce" unicode="&#59179;" d="M821.333333 768a160 160 0 0 0 160-160v-448a160 160 0 0 0-160-160h-618.666666A160 160 0 0 0 42.666667 160v448A160 160 0 0 0 202.666667 768z m-174.826666-384.704l-3.989334-2.645333L191.274667 64.661333c3.733333-0.426667 7.530667-0.661333 11.392-0.661333h618.666666a96 96 0 0 1 96 96l-0.106666-4.309333-141.013334 201.386666a96 96 0 0 1-129.706666 26.24zM821.333333 704h-618.666666A96 96 0 0 1 106.666667 608v-448c0-23.189333 8.234667-44.458667 21.909333-61.056L605.802667 433.066667a160 160 0 0 0 219.52-34.773334l3.306666-4.522666L917.333333 267.093333V608a96 96 0 0 1-91.477333 95.893333L821.333333 704zM213.333333 661.333333a64 64 0 1 0 0-128 64 64 0 0 0 0 128z"  horiz-adv-x="1024" />

    
    <glyph glyph-name="sousuo" unicode="&#59184;" d="M501.333333 832C731.093333 832 917.333333 645.76 917.333333 416a414.677333 414.677333 0 0 0-120.533333-292.842667l132.544-132.586666a32 32 0 1 0-45.248-45.248l-135.872 135.829333A414.144 414.144 0 0 0 501.333333 0C271.573333 0 85.333333 186.24 85.333333 416S271.573333 832 501.333333 832z m0-64C306.922667 768 149.333333 610.410667 149.333333 416S306.922667 64 501.333333 64 853.333333 221.589333 853.333333 416 695.744 768 501.333333 768z"  horiz-adv-x="1024" />

    
    <glyph glyph-name="rijian" unicode="&#58952;" d="M522.88 21.333333a21.333333 21.333333 0 0 0 21.333333-21.333333v-85.333333a21.333333 21.333333 0 0 0-21.333333-21.333334h-21.333333a21.333333 21.333333 0 0 0-21.333334 21.333334v85.333333a21.333333 21.333333 0 0 0 21.333334 21.333333h21.333333z m268.416 107.52l60.352-60.352a21.333333 21.333333 0 0 0 0-30.165333l-15.082667-15.082667a21.333333 21.333333 0 0 0-30.186666 0l-60.330667 60.352a21.333333 21.333333 0 0 0 0 30.165334l15.082667 15.082666a21.333333 21.333333 0 0 0 30.165333 0z m-527.957333 0l15.082666-15.082666a21.333333 21.333333 0 0 0 0-30.165334l-60.352-60.352a21.333333 21.333333 0 0 0-30.165333 0l-15.082667 15.082667a21.333333 21.333333 0 0 0 0 30.165333l60.330667 60.352a21.333333 21.333333 0 0 0 30.186667 0zM512 618.666667c141.376 0 256-114.624 256-256s-114.624-256-256-256-256 114.624-256 256 114.624 256 256 256z m0-64a192 192 0 1 1 0-384 192 192 0 0 1 0 384z m448.213333-160a21.333333 21.333333 0 0 0 21.333334-21.333334v-21.333333a21.333333 21.333333 0 0 0-21.333334-21.333333h-85.333333a21.333333 21.333333 0 0 0-21.333333 21.333333v21.333333a21.333333 21.333333 0 0 0 21.333333 21.333334h85.333333z m-810.666666 0a21.333333 21.333333 0 0 0 21.333333-21.333334v-21.333333a21.333333 21.333333 0 0 0-21.333333-21.333333h-85.333334a21.333333 21.333333 0 0 0-21.333333 21.333333v21.333333a21.333333 21.333333 0 0 0 21.333333 21.333334h85.333334zM836.586667 702.08l15.082666-15.082667a21.333333 21.333333 0 0 0 0-30.165333l-60.352-60.352a21.333333 21.333333 0 0 0-30.165333 0l-15.082667 15.082667a21.333333 21.333333 0 0 0 0 30.165333l60.330667 60.352a21.333333 21.333333 0 0 0 30.186667 0z m-618.496 0l60.352-60.352a21.333333 21.333333 0 0 0 0-30.165333l-15.082667-15.082667a21.333333 21.333333 0 0 0-30.186667 0L172.821333 656.853333a21.333333 21.333333 0 0 0 0 30.165334l15.082667 15.082666a21.333333 21.333333 0 0 0 30.165333 0zM522.901333 832a21.333333 21.333333 0 0 0 21.333334-21.333333v-85.333334a21.333333 21.333333 0 0 0-21.333334-21.333333h-21.333333a21.333333 21.333333 0 0 0-21.333333 21.333333V810.666667a21.333333 21.333333 0 0 0 21.333333 21.333333h21.333333z"  horiz-adv-x="1024" />

    
    <glyph glyph-name="xigua" unicode="&#59386;" d="M211.797415 867.000354c-2.799966-2.699967-5.899928-5.099938-8.699894-7.899904-216.497357-216.497357-216.497357-567.493073 0-783.990429s567.493073-216.497357 783.99043 0c2.799966 2.799966 5.099938 5.899928 7.899903 8.699893L211.797415 867.000354zM299.496344 779.301425c-2.199973-2.099974-4.599944-3.899952-6.799917-6.099926-167.997949-167.997949-167.997949-440.494623 0-608.492572s440.494623-167.997949 608.492572 0c2.199973 2.199973 3.999951 4.499945 6.099926 6.799917L299.496344 779.301425zM965.888209 112.909559c-2.699967-2.799966-5.099938-5.899928-7.899903-8.699894-200.097557-200.097557-525.793582-200.097557-725.891139 0S31.999609 630.003247 232.097167 830.100804c2.799966 2.799966 5.899928 5.099938 8.699894 7.899904l-57.999292 57.999292c-2.799966-2.699967-5.899928-5.099938-8.699894-7.899904C-57.999292 656.00293-57.999292 278.30754 174.097875 46.110375s609.892555-232.097167 841.989722 0c2.799966 2.799966 5.099938 5.899928 7.899903 8.699893l-58.099291 58.099291zM307.596245 585.303793c-0.999988-0.999988-1.899977-1.999976-2.699967-2.999964-18.599773-22.199729-7.199912-56.49931 20.299752-65.699198l20.099755-6.699918L401.995093 491.004944l-18.899769 56.699308-6.699919 20.099754c-9.199888 27.499664-43.39947 38.799526-65.699198 20.299752-1.199985-0.899989-2.199973-1.799978-3.099962-2.799965zM278.696598 421.305795c0-1.399983 0.099999-2.699967 0.199998-3.999952 2.599968-28.899647 34.899574-45.099449 60.799257-32.099608l18.89977 9.499884 53.399348 26.699674-53.399348 26.599676-18.89977 9.499884c-25.899684 12.999841-58.19929-3.29996-60.799257-32.099608-0.199998-1.399983-0.199998-2.799966-0.199998-4.09995zM385.595293 257.307797c0.999988-0.999988 1.999976-1.899977 2.999963-2.699968 22.199729-18.599773 56.49931-7.199912 65.699198 20.299753L460.994373 295.007336l18.899769 56.699308-56.699308-18.899769-20.099755-6.699918c-27.499664-9.199888-38.799526-43.39947-20.299752-65.699198 0.999988-1.099987 1.899977-2.099974 2.799966-3.099962zM549.69329 150.709098c1.399983 0 2.699967 0.099999 3.999951 0.199997 28.899647 2.599968 45.099449 34.899574 32.099608 60.799258l-9.499884 18.899769-26.599675 53.399349-26.699674-53.399349-9.499884-18.899769c-12.999841-25.899684 3.29996-58.19929 32.099608-60.799258 1.399983-0.199998 2.699967-0.199998 4.09995-0.199997zM713.591289 179.908741c0.999988 0.999988 1.899977 1.999976 2.699967 2.999964 18.599773 22.199729 7.199912 56.49931-20.299752 65.699198l-20.099755 6.699918-56.699308 18.899769 18.89977-56.699308 6.699918-20.099754c9.199888-27.499664 43.39947-38.799526 65.699198-20.299752 1.199985 0.899989 2.199973 1.799978 3.099962 2.799965z"  horiz-adv-x="1024" />

    
    <glyph glyph-name="caomei" unicode="&#59389;" d="M397.6 894.2C480 785.8 562.3 677.3 644.7 568.9c9.7 22 29.5 75.3 15.5 139.7C638.5 808.5 552.8 854.7 536 863.8 478.4 894.9 423.4 895.6 397.6 894.2zM1023.6 268.2c-108.4 82.4-216.9 164.7-325.3 247.1 22 9.7 75.3 29.5 139.7 15.5 99.9-21.7 146.2-107.4 155.2-124.2 31.1-57.6 31.8-112.6 30.4-138.4zM634.296801 504.904825a184.1 113.8 45.001 1 1 260.352172 260.361261 184.1 113.8 45.001 1 1-260.352172-260.361261ZM715 582.2c-41.5 38-218.8 200.1-404.7 151.8C77.7 673.5 29.3 335.2 6.7 177.5-7.6 77.1 1.1 20.1 32-24.9c64-93.1 198.3-98.8 252.9-101.2 244.8-10.5 590.4 140.9 607.1 379.4 11 156.9-125 281.3-177 328.9zM365.1 575.5m-75.9 0a75.9 75.9 0 1 1 151.8 0 75.9 75.9 0 1 1-151.8 0ZM383 557.7c-19.8-19.8-61.7-45.6-71.5-35.8s16 51.8 35.8 71.5c6.3 6.3 12.5 11.3 20.5 11.3 13.1 0 26.6-13.5 26.6-26.6-0.1-8-5.1-14.2-11.4-20.4zM535.1 405.6m-75.9 0a75.9 75.9 0 1 1 151.8 0 75.9 75.9 0 1 1-151.8 0ZM552.9 387.7c-19.8-19.8-61.7-45.6-71.5-35.8-9.9 9.9 16 51.8 35.8 71.5 6.3 6.3 12.5 11.3 20.5 11.3 13.1 0 26.6-13.5 26.6-26.6 0-7.9-5.1-14.1-11.4-20.4zM248.9 316.2m-75.9 0a75.9 75.9 0 1 1 151.8 0 75.9 75.9 0 1 1-151.8 0ZM266.8 298.3c-19.8-19.8-61.7-45.6-71.5-35.8s16 51.8 35.8 71.5c6.3 6.3 12.5 11.3 20.5 11.3 13.1 0 26.6-13.5 26.6-26.6-0.1-7.9-5.2-14.1-11.4-20.4zM445.6 119.4m-75.9 0a75.9 75.9 0 1 1 151.8 0 75.9 75.9 0 1 1-151.8 0ZM463.5 101.6c-19.8-19.8-61.7-45.6-71.5-35.8-9.9 9.9 16 51.8 35.8 71.5 6.3 6.3 12.5 11.3 20.5 11.3 13.1 0 26.6-13.5 26.6-26.6-0.1-8-5.1-14.2-11.4-20.4zM195.2 65.8m-75.9 0a75.9 75.9 0 1 1 151.8 0 75.9 75.9 0 1 1-151.8 0ZM213.1 47.9c-19.8-19.8-61.7-45.6-71.5-35.8-9.9 9.9 16 51.8 35.8 71.5 6.3 6.3 12.5 11.3 20.5 11.3 13.1 0 26.6-13.5 26.6-26.6-0.1-7.9-5.1-14.1-11.4-20.4zM705 235.7m-75.9 0a75.9 75.9 0 1 1 151.8 0 75.9 75.9 0 1 1-151.8 0ZM722.9 217.8c-19.8-19.8-61.7-45.6-71.5-35.8-9.9 9.9 16 51.8 35.8 71.5 6.3 6.3 12.5 11.3 20.5 11.3 13.1 0 26.6-13.5 26.6-26.6-0.1-7.9-5.2-14.1-11.4-20.4z"  horiz-adv-x="1024" />

    
    <glyph glyph-name="tq_03duoyun" unicode="&#59154;" d="M936.228571 309.394286h-4.973714l-44.470857 11.995428a19.602286 19.602286 0 0 0 10.24 37.741715l44.178286-12.288a19.017143 19.017143 0 0 0 13.750857-23.698286 19.309714 19.309714 0 0 0-18.724572-13.750857zM874.788571 494.884571a19.602286 19.602286 0 0 0-16.969142 9.654858 19.309714 19.309714 0 0 0 7.314285 26.331428l39.789715 23.113143a19.602286 19.602286 0 1 0 19.309714-33.938286l-40.082286-22.820571a17.846857 17.846857 0 0 0-9.362286-2.340572zM740.790857 606.061714h-4.973714a19.309714 19.309714 0 0 0-13.750857 23.990857l11.995428 44.178286a19.309714 19.309714 0 1 0 37.449143-10.24L760.685714 620.397714a19.309714 19.309714 0 0 0-19.894857-14.336zM567.588571 589.970286a19.602286 19.602286 0 0 0-16.969142 9.654857L526.628571 639.707429a19.602286 19.602286 0 0 0 7.314286 26.624 19.309714 19.309714 0 0 0 26.331429-7.314286L585.142857 618.934857a19.602286 19.602286 0 0 0-7.021714-26.331428 19.894857 19.894857 0 0 0-10.532572-2.633143zM775.606857 298.569143a19.602286 19.602286 0 0 0-14.043428 5.851428 19.309714 19.309714 0 0 0 0 27.501715 122.88 122.88 0 0 1 38.034285 89.234285 124.050286 124.050286 0 0 1-237.860571 48.859429A19.309714 19.309714 0 1 0 526.628571 486.4a162.669714 162.669714 0 1 0 263.314286-181.101714 19.017143 19.017143 0 0 0-14.336-6.729143zM782.628571 78.848H218.550857a154.770286 154.770286 0 0 0-6.729143 308.662857A189.001143 189.001143 0 0 0 576.950857 457.142857a141.897143 141.897143 0 0 0 37.449143 4.681143 144.237714 144.237714 0 0 0 142.774857-126.098286 125.220571 125.220571 0 0 0 21.065143 1.755429 129.316571 129.316571 0 0 0 4.973714-258.633143zM224.109714 349.184a117.028571 117.028571 0 0 1-4.973714-231.424h562.614857a90.697143 90.697143 0 1 1-36.864 175.542857l-29.257143-10.825143 1.755429 32.475429a16.676571 16.676571 0 0 1 0 3.803428A105.033143 105.033143 0 0 1 614.4 422.912a106.496 106.496 0 0 1-41.545143-8.484571l-20.772571-9.069715-6.144 22.528a150.089143 150.089143 0 0 1-295.204572-39.789714 136.338286 136.338286 0 0 1 0-17.846857l2.633143-23.113143-25.161143 1.755429z"  horiz-adv-x="1024" />

    
    <glyph glyph-name="tq_01qing" unicode="&#59155;" d="M512 161.060571a222.939429 222.939429 0 1 0 222.939429 222.939429 223.232 223.232 0 0 0-222.939429-222.939429z m0 400.237715a177.298286 177.298286 0 1 1 177.298286-177.298286 177.590857 177.590857 0 0 1-177.298286 177.298286zM512 645.266286a21.065143 21.065143 0 0 0-21.065143 21.065143V763.757714a21.065143 21.065143 0 1 0 42.130286 0v-97.426285a21.065143 21.065143 0 0 0-21.065143-21.065143zM312.466286 562.468571a20.772571 20.772571 0 0 0-14.921143 6.144L228.498286 637.659429a21.065143 21.065143 0 0 0 29.257143 29.257142l69.046857-69.046857a21.065143 21.065143 0 0 0-14.921143-35.986285zM229.668571 362.934857H132.242286a21.065143 21.065143 0 0 0 0 42.130286h97.426285a21.065143 21.065143 0 1 0 0-42.130286zM243.419429 94.354286a21.065143 21.065143 0 0 0-14.921143 35.986285l69.046857 69.046858a21.065143 21.065143 0 0 0 29.257143-29.257143l-68.461715-69.632a20.772571 20.772571 0 0 0-14.921142-6.144zM512-16.822857a21.065143 21.065143 0 0 0-21.065143 21.065143v97.426285a21.065143 21.065143 0 0 0 42.130286 0v-97.426285a21.065143 21.065143 0 0 0-21.065143-21.065143zM780.580571 94.354286a20.772571 20.772571 0 0 0-14.921142 6.144l-69.046858 69.046857a21.065143 21.065143 0 0 0 29.257143 29.257143l69.046857-69.046857a21.065143 21.065143 0 0 0-14.921142-35.986286zM891.757714 362.934857h-97.426285a21.065143 21.065143 0 0 0 0 42.130286h97.426285a21.065143 21.065143 0 1 0 0-42.130286zM711.533714 562.468571a21.065143 21.065143 0 0 0-14.921143 35.986286l69.046858 69.046857a21.065143 21.065143 0 0 0 29.257142-29.257143l-69.046857-69.046857a20.772571 20.772571 0 0 0-14.336-6.729143z"  horiz-adv-x="1024" />

    
    <glyph glyph-name="tq_13zhongyu" unicode="&#59156;" d="M367.469714 95.232a22.235429 22.235429 0 0 0-19.017143 33.353143L386.779429 193.828571a22.235429 22.235429 0 1 0 38.034285-22.528L386.779429 106.057143a22.820571 22.820571 0 0 0-19.309715-10.825143zM563.492571 6.875429a21.357714 21.357714 0 0 0-11.702857 3.218285 22.235429 22.235429 0 0 0-7.314285 29.257143L637.513143 193.828571a22.235429 22.235429 0 0 0 29.257143 7.606858 22.528 22.528 0 0 0 7.606857-30.72L582.509714 18.285714a22.820571 22.820571 0 0 0-19.017143-11.410285zM806.326857 262.875429H242.249143a154.770286 154.770286 0 0 0-6.729143 308.662857 189.001143 189.001143 0 0 0 365.129143 69.339428 141.897143 141.897143 0 0 0 36.864 4.973715 143.945143 143.945143 0 0 0 142.774857-126.098286 127.853714 127.853714 0 0 0 21.065143 1.755428 129.316571 129.316571 0 0 0 4.973714-258.633142zM247.808 533.211429a117.028571 117.028571 0 0 1-4.973714-231.424h562.614857a90.697143 90.697143 0 1 1-36.864 175.542857l-29.257143-10.825143 1.755429 32.182857a18.139429 18.139429 0 0 1 0 3.803429 105.033143 105.033143 0 0 1-105.033143 105.033142 106.496 106.496 0 0 1-41.545143-8.484571l-20.48-9.069714-5.851429 21.650285a150.089143 150.089143 0 0 1-293.741714-39.497142 136.338286 136.338286 0 0 1 0-17.846858l2.633143-22.820571-25.453714 1.462857z"  horiz-adv-x="1024" />

    
    <glyph glyph-name="tq_05yin" unicode="&#59157;" d="M721.188571 303.835429l1.755429 32.182857a18.139429 18.139429 0 0 1 0 3.803428 105.033143 105.033143 0 0 1-105.033143 105.033143 101.522286 101.522286 0 0 1-41.545143-8.484571L555.885714 427.885714l-5.851428 21.650286A149.796571 149.796571 0 0 1 468.114286 544.914286l-15.213715 7.021714 4.973715 16.091429a137.801143 137.801143 0 0 0 258.340571 14.921142 112.347429 112.347429 0 0 0 22.235429 2.340572 106.496 106.496 0 0 0 104.740571-87.771429h9.654857a96.256 96.256 0 0 0 3.803429-192.512h-27.794286l-3.510857 5.851429a90.989714 90.989714 0 0 1-76.068571 4.973714z m117.028572 42.130285h17.554286a58.514286 58.514286 0 0 1-3.218286 114.980572 61.732571 61.732571 0 0 1-20.48-3.803429l-29.257143-11.117714 2.048 31.890286v2.340571a67.291429 67.291429 0 0 1-67.584 67.291429 69.632 69.632 0 0 1-26.624-5.266286l-20.48-9.069714-5.851429 21.650285a99.181714 99.181714 0 0 1-184.905142 17.846857 187.245714 187.245714 0 0 0 79.579428-93.622857A144.530286 144.530286 0 0 0 760.685714 357.961143a129.609143 129.609143 0 0 0 78.701715-11.995429zM787.017143 100.790857H222.646857a154.770286 154.770286 0 0 0-6.436571 308.662857 189.001143 189.001143 0 0 0 364.836571 68.754286A144.530286 144.530286 0 0 0 760.685714 357.961143a122.002286 122.002286 0 0 0 20.772572 1.755428 129.609143 129.609143 0 0 0 5.266285-258.925714zM228.498286 371.126857a117.028571 117.028571 0 0 1-4.973715-231.424h562.614858a89.819429 89.819429 0 0 1 86.308571 90.404572 90.404571 90.404571 0 0 1-123.172571 84.553142l-29.257143-10.825142 1.755428 32.182857a18.139429 18.139429 0 0 1 0 3.803428 105.033143 105.033143 0 0 1-105.033143 105.033143 101.522286 101.522286 0 0 1-41.545142-8.484571L555.885714 427.885714l-5.851428 21.650286A150.089143 150.089143 0 0 1 255.122286 410.331429a130.194286 130.194286 0 0 1 0-17.846858l2.633143-23.113142H234.057143z"  horiz-adv-x="1024" />

    
    <glyph glyph-name="tq_19dabaoyu" unicode="&#59158;" d="M348.16 6.875429a19.894857 19.894857 0 0 0-11.410286 3.218285 21.942857 21.942857 0 0 0-7.606857 29.257143l15.213714 25.161143a22.235429 22.235429 0 1 0 38.034286-23.113143l-15.213714-25.161143a22.235429 22.235429 0 0 0-19.017143-9.362285zM398.482286 89.965714a23.113143 23.113143 0 0 0-11.410286 3.218286 22.235429 22.235429 0 0 0-7.606857 29.257143L422.180571 193.828571a22.235429 22.235429 0 1 0 38.034286-23.113142l-42.715428-70.217143a21.942857 21.942857 0 0 0-19.017143-10.532572zM184.905143 6.875429a20.48 20.48 0 0 0-11.410286 3.218285 22.235429 22.235429 0 0 0-7.606857 29.257143L258.925714 193.828571a22.235429 22.235429 0 1 0 38.034286-23.113142L204.8 18.285714a22.235429 22.235429 0 0 0-19.894857-11.410285zM511.414857 6.875429a21.357714 21.357714 0 0 0-11.702857 3.218285 22.235429 22.235429 0 0 0-7.314286 29.257143L585.142857 193.828571a22.235429 22.235429 0 0 0 29.257143 7.606858 22.528 22.528 0 0 0 7.606857-30.72L530.432 18.285714a22.820571 22.820571 0 0 0-19.017143-11.410285zM674.377143 6.875429a21.065143 21.065143 0 0 0-11.410286 3.218285 21.942857 21.942857 0 0 0-7.314286 29.257143L748.690286 193.828571a22.235429 22.235429 0 1 0 37.741714-23.113142L693.394286 18.285714a22.235429 22.235429 0 0 0-19.017143-11.410285zM806.326857 262.875429H242.249143a154.770286 154.770286 0 0 0-6.729143 308.662857 189.001143 189.001143 0 0 0 365.129143 69.339428 141.897143 141.897143 0 0 0 36.864 4.973715 143.945143 143.945143 0 0 0 142.774857-126.098286 127.853714 127.853714 0 0 0 21.065143 1.755428 129.316571 129.316571 0 0 0 4.973714-258.633142zM247.808 533.211429a117.028571 117.028571 0 0 1-4.973714-231.424h562.614857a90.697143 90.697143 0 1 1-36.864 175.542857l-29.257143-10.825143 1.755429 32.182857a18.139429 18.139429 0 0 1 0 3.803429 105.033143 105.033143 0 0 1-105.033143 105.033142 106.496 106.496 0 0 1-41.545143-8.484571l-20.48-9.069714-5.851429 21.650285a150.089143 150.089143 0 0 1-293.741714-39.497142 136.338286 136.338286 0 0 1 0-17.846858l2.633143-23.113142-25.453714 1.755428z"  horiz-adv-x="1024" />

    


  </font>
</defs>
</svg>
